# xmcd
#
# Track frame offsets: 
#        150
#        17169
#        33391
#        51406
#        70523
#        87669
#        110389
#        115395
#        134277
#        152880
#        174489
#        194410
#
# Disc length: 2936 seconds
#
# Revision: 0
# Processed by: cddbd v1.5.2PL0 Copyright (c) Steve Scherf et al.
# Submitted via: ExactAudioCopy v1.0b1
#
DISCID=a60b760c
DTITLE=Vesterinen Yhtyeineen - Erikoismiehen J‰‰hyv‰iset
DYEAR=2011
DGENRE=Pop
TTITLE0=Kellarissa
TTITLE1=Is‰
TTITLE2=Kiljut Riemusta
TTITLE3=Lohduttaja
TTITLE4=Kanto
TTITLE5=Villihevosia
TTITLE6=Erikoismiehen Paluu
TTITLE7=Kummaa Jengi‰
TTITLE8=Joulupukki Bangkokissa
TTITLE9=Niin Kauan Kuin Hengit‰n
TTITLE10=Paviaani
TTITLE11=Kulkukoira
EXTD=
EXTT0=
EXTT1=
EXTT2=
EXTT3=
EXTT4=
EXTT5=
EXTT6=
EXTT7=
EXTT8=
EXTT9=
EXTT10=
EXTT11=
PLAYORDER=
